<mxfile host="65bd71144e" modified="2020-11-21T04:30:50.428Z" agent="5.0 (Macintosh; Intel Mac OS X 10_14_6) AppleWebKit/537.36 (KHTML, like Gecko) Code/1.51.1 Chrome/83.0.4103.122 Electron/9.3.3 Safari/537.36" version="13.6.5" etag="Cy0yP3nyzXab4JoOXRrr">
    <diagram id="fp5n8K5wV-1dMlIHT02_" name="ページ1">
        <mxGraphModel dx="536" dy="739" grid="1" gridSize="10" guides="1" tooltips="1" connect="1" arrows="1" fold="1" page="1" pageScale="1" pageWidth="827" pageHeight="1169" math="0" shadow="0">
            <root>
                <mxCell id="0"/>
                <mxCell id="1" parent="0"/>
                <mxCell id="2" value="" style="rounded=0;whiteSpace=wrap;html=1;" vertex="1" parent="1">
                    <mxGeometry x="70" y="190" width="180" height="270" as="geometry"/>
                </mxCell>
                <mxCell id="3" value="表紙①" style="rounded=0;whiteSpace=wrap;html=1;" vertex="1" parent="1">
                    <mxGeometry x="98" y="270" width="30" height="40" as="geometry"/>
                </mxCell>
                <mxCell id="5" value="表紙②" style="rounded=0;whiteSpace=wrap;html=1;" vertex="1" parent="1">
                    <mxGeometry x="98" y="330" width="30" height="40" as="geometry"/>
                </mxCell>
                <mxCell id="10" value="表紙③" style="rounded=0;whiteSpace=wrap;html=1;" vertex="1" parent="1">
                    <mxGeometry x="98" y="390" width="30" height="40" as="geometry"/>
                </mxCell>
                <mxCell id="17" value="絵本情報①" style="rounded=0;whiteSpace=wrap;html=1;" vertex="1" parent="1">
                    <mxGeometry x="146" y="270" width="80" height="40" as="geometry"/>
                </mxCell>
                <mxCell id="18" value="絵本情報②" style="rounded=0;whiteSpace=wrap;html=1;" vertex="1" parent="1">
                    <mxGeometry x="147" y="330" width="80" height="40" as="geometry"/>
                </mxCell>
                <mxCell id="19" value="絵本情報③" style="rounded=0;whiteSpace=wrap;html=1;" vertex="1" parent="1">
                    <mxGeometry x="147" y="390" width="80" height="40" as="geometry"/>
                </mxCell>
            </root>
        </mxGraphModel>
    </diagram>
</mxfile>
